{"title":"Twistys.Georgie.Lyall.Ill.Give.You.My.All.XXX.720p.MP4.mp4","uid":10615062,"size":803602528,"categoryP":"porn","categoryS":"movies","magnet":"?xt=urn:btih:df13bfd5e3f9a38057afee23b17d4a9eae362b7f&amp;dn=Twistys.Georgie.Lyall.Ill.Give.You.My.All.XXX.720p.MP4.mp4&amp;tr=udp%3A%2F%2Ftracker.openbittorrent.com%3A80&amp;tr=udp%3A%2F%2Fopen.demonii.com%3A1337&amp;tr=udp%3A%2F%2Ftracker.coppersurfer.tk%3A6969&amp;tr=udp%3A%2F%2Fexodus.desync.com%3A6969","seeders":0,"leechers":1,"uploader":"XXXmegathor","files":1,"time":1406098816,"description":"Twistys.Georgie.Lyall.Ill.Give.You.My.All.XXX.720p.MP4\n\nSCREENIES &lt;a href=&quot;\nhttp://xxxtrapics.com/image/ME&quot; rel=&quot;nofollow&quot; target=&quot;_NEW&quot;&gt;\nhttp://xxxtrapics.com/image/ME&lt;/a&gt;\n\n\nDuration : 10mn 12s\nDuration_LastFrame : -17ms\nBit rate mode : Variable\nBit rate : 10 000 Kbps\nWidth : 1 280 pixels\nHeight : 720 pixels\nDisplay aspect ratio : 16:9\nFrame rate mode : Constant\nFrame rate : 29.970 fps\nColor space : YUV\nChroma subsampling : 4:2:0\nBit depth : 8 bits\nScan type : Progressive\nBits/(Pixel*Frame) : 0.362\nStream size : 726 MiB (95%)\nWriting library : x264 core 132 r2309 3b1f1f7\nEncoding settings : cabac=1 / ref=5 / deblock=1:0:0 / analyse=0x3:0x113 / me=umh / subme=8 / psy=1 / psy_rd=1.00:0.00 / mixed_ref=1 / me_range=16 / chroma_me=1 / trellis=1 / 8x8dct=1 / cqm=0 / deadzone=21,11 / fast_pskip=1 / chroma_qp_offset=-2 / threads=24 / lookahead_threads=4 / sliced_threads=0 / nr=0 / decimate=1 / interlaced=0 / bluray_compat=0 / constrained_intra=0 / bframes=3 / b_pyramid=2 / b_adapt=2 / b_bias=0 / direct=3 / weightb=1 / open_gop=0 / weightp=2 / keyint=60 / keyint_min=6 / scenecut=40 / intra_refresh=0 / rc_lookahead=50 / rc=abr / mbtree=1 / bitrate=10000 / ratetol=1.0 / qcomp=0.60 / qpmin=0 / qpmax=69 / qpstep=4 / ip_ratio=1.40 / aq=1:1.00\nTagged date : UTC 2014-07-16 17:06:04\n\nAudio\nID : 2\nFormat : AAC\nFormat/Info : Advanced Audio Codec\nFormat profile : LC\nCodec ID : 40\nDuration : 10mn 12s\nBit rate mode : Constant\nBit rate : 128 Kbps\nChannel(s) : 2 channels\nChannel positions : Front: L R\nSampling rate : 48.0 KHz\nCompression mode : Lossy\nStream size : 9.35 MiB (1%)\nTagged date : UTC 2014-07-16 17:06:04\n\n","torrent":{"xt":"urn:btih:df13bfd5e3f9a38057afee23b17d4a9eae362b7f","amp;dn":"Twistys.Georgie.Lyall.Ill.Give.You.My.All.XXX.720p.MP4.mp4","amp;tr":["udp%3A%2F%2Ftracker.openbittorrent.com%3A80","udp%3A%2F%2Fopen.demonii.com%3A1337","udp%3A%2F%2Ftracker.coppersurfer.tk%3A6969","udp%3A%2F%2Fexodus.desync.com%3A6969"],"infoHash":"df13bfd5e3f9a38057afee23b17d4a9eae362b7f","infoHashBuffer":{"type":"Buffer","data":[223,19,191,213,227,249,163,128,87,175,238,35,177,125,74,158,174,54,43,127]},"announce":[],"urlList":[]}}